<svg id="Capa_1" enable-background="new 0 0 512 512" height="512" viewBox="0 0 512 512" width="512" xmlns="http://www.w3.org/2000/svg"><g><path d="m455.732 266.544c-.049-.01-.099-.02-.148-.029-39.544-7.351-38.486-6.967-40.328-7.581-2.815-.93-5.215-2.425-5.808-9.888 23.925-11.569 39.552-36.064 39.552-63.046v-51.006c22.795-4.646 40-24.847 40-48.994 0-27.57-22.43-50-50-50-5.523 0-10 4.477-10 10 0 5.514-4.486 10-10 10h-60c-27.57 0-50 22.43-50 50v80c0 26.969 15.614 51.455 39.521 63.032-.735 8.21-3.726 9.208-5.892 9.932-1.66.57-1.599.374-30.172 5.663-6.917-9.432-16.085-16.985-26.646-21.963-1.666-14.977-14.397-26.664-29.811-26.664s-28.145 11.687-29.81 26.664c-10.562 4.978-19.73 12.531-26.646 21.963-28.785-5.329-28.434-5.074-30.288-5.692-2.815-.93-5.215-2.425-5.809-9.891 11.028-5.342 20.551-13.565 27.482-23.76 33.611-14.428 52.071-42.463 52.071-79.284 0-12.514-2.087-24.794-6.203-36.499-1.833-5.21-7.542-7.949-12.751-6.116-5.21 1.832-7.948 7.541-6.116 12.751 3.364 9.567 5.07 19.615 5.07 29.864 0 23.387-9.052 38.772-20.572 48.884.374-2.935.572-5.901.572-8.884v-20.04c0-17.214-8.688-32.993-23.24-42.208-2.537-1.605-5.661-1.988-8.51-1.039-24.677 8.219-51.841 8.219-76.486.001-2.854-.952-5.98-.569-8.519 1.041-14.556 9.23-23.245 25.023-23.245 42.245v20c0 2.983.198 5.948.572 8.883-11.52-10.111-20.572-25.496-20.572-48.883 0-49.626 40.374-90 90-90 9.812 0 19.453 1.566 28.657 4.655 5.237 1.756 10.904-1.063 12.662-6.299 1.757-5.236-1.063-10.905-6.299-12.662-11.259-3.778-23.041-5.694-35.02-5.694-60.654 0-110 49.346-110 110 0 36.821 18.46 64.856 52.071 79.285 6.924 10.184 16.434 18.402 27.45 23.744-.735 8.214-3.726 9.211-5.893 9.935-1.651.568-.812.229-40.212 7.553-.049.009-.099.019-.148.028-32.604 6.522-56.268 35.392-56.268 68.645v130.81c0 5.523 4.477 10 10 10h492c5.523 0 10-4.477 10-10v-130.81c0-33.253-23.664-62.123-56.268-68.646zm36.268 68.646v20.81h-20v-10c0-5.523-4.477-10-10-10s-10 4.477-10 10v110h-106v-10c0-35.387-20.569-66.835-51.646-81.439 19.416-12.733 31.646-34.609 31.646-58.561 0-7.805-1.301-15.52-3.815-22.823l19.775-3.619c9.408 10.384 22.801 16.431 37.033 16.433h.007c14.229 0 27.622-6.046 37.034-16.43l35.844 6.609c23.252 4.687 40.122 25.291 40.122 49.02zm-246 30.81c0-5.527 4.432-10 10-10 5.576 0 10 4.483 10 10 0 5.545-4.489 10-10 10-5.523 0-10-4.466-10-10zm113-290h60c12.641 0 23.481-7.859 27.891-18.947 12.726 3.473 22.109 15.135 22.109 28.947 0 16.542-13.458 30-30 30h-110v-10c0-16.542 13.458-30 30-30zm-30 110v-50h100v50c0 21.023-13.278 39.932-33.04 47.052-3.86 1.391-6.479 4.998-6.605 9.099-.181 5.856-.574 18.867 7.48 28.003-5.063 3.769-11.219 5.837-17.834 5.837-.001 0-.003 0-.004 0-6.652-.001-12.839-2.092-17.916-5.898 8.133-9.328 7.729-22.644 7.564-27.943-.127-4.1-2.746-7.707-6.605-9.098-19.763-7.12-33.04-26.029-33.04-47.052zm-73 50c5.514 0 10 4.486 10 9.99-.236.596.322 4.088-10 21.44-3.084-5.184-8.986-15.492-10-21.431 0-5.513 4.486-9.999 10-9.999zm-25.166 26.792c5.944 12.815 15.555 26.89 16.939 28.892 1.867 2.703 4.942 4.316 8.227 4.316s6.36-1.613 8.228-4.316c1.384-2.003 11.002-16.087 16.941-28.891 15.061 8.791 24.831 24.994 24.831 43.207 0 18.09-9.763 34.522-25.032 43.33-5.407-8.126-14.622-13.33-24.968-13.33-10.356 0-19.579 5.215-24.978 13.324-15.264-8.809-25.022-25.238-25.022-43.324 0-18.151 9.71-34.383 24.834-43.208zm-147.834-76.792v-20c0-8.861 3.834-17.091 10.436-22.751 25.695 7.497 53.422 7.496 79.142-.002 6.592 5.647 10.422 13.864 10.422 22.713v20.04c0 21.472-13.61 40.055-33.038 47.051-3.86 1.391-6.48 4.998-6.607 9.099-.181 5.856-.574 18.867 7.48 28.003-5.063 3.769-11.219 5.837-17.834 5.837-.001 0-.003 0-.004 0-6.652-.001-12.839-2.092-17.916-5.898 8.133-9.328 7.729-22.644 7.564-27.943-.127-4.101-2.747-7.708-6.607-9.098-19.411-6.99-33.038-25.563-33.038-47.051zm-22.878 100.17 35.841-6.609c9.408 10.382 22.799 16.428 37.031 16.43h.007c14.23 0 27.625-6.048 37.037-16.433l19.777 3.62c-2.514 7.302-3.815 15.018-3.815 22.822 0 23.952 12.23 45.828 31.646 58.561-31.077 14.604-51.646 46.052-51.646 81.439v10h-106v-110c0-5.523-4.477-10-10-10s-10 4.477-10 10v10h-20v-20.81c0-23.73 16.869-44.335 40.122-49.02zm-40.122 89.83h20v80h-20zm166 70c0-28.965 17.702-54.546 44.008-65.025 5.215 9.036 14.983 15.025 25.992 15.025s20.777-5.989 25.992-15.025c26.306 10.479 44.008 36.06 44.008 65.025v10h-140zm286 10v-80h20v80z"/><circle cx="203" cy="75" r="10"/></g></svg>